Coordinates
version=1
nRows=30
nColumns=38
inDegrees=no

Units are S.I. units (second, meters, Newtons, ...)
If the header above contains a line with 'inDegrees', this indicates whether rotational values are in degrees (yes) or radians (no).

endheader
time	pelvis_tilt	pelvis_list	pelvis_rotation	pelvis_tx	pelvis_ty	pelvis_tz	hip_flexion_r	hip_adduction_r	hip_rotation_r	knee_angle_r	ankle_angle_r	subtalar_angle_r	mtp_angle_r	hip_flexion_l	hip_adduction_l	hip_rotation_l	knee_angle_l	ankle_angle_l	subtalar_angle_l	mtp_angle_l	lumbar_extension	lumbar_bending	lumbar_rotation	arm_flex_r	arm_add_r	arm_rot_r	elbow_flex_r	pro_sup_r	wrist_flex_r	wrist_dev_r	arm_flex_l	arm_add_l	arm_rot_l	elbow_flex_l	pro_sup_l	wrist_flex_l	wrist_dev_l
21.29	1.19865	1.35885	0.414703	0.820272	-0.678602	0.960217	0.302321	0.13288	-0.345392	0.372562	0.0576154	0	0	-0.106423	-0.152838	-0.378964	0.0342185	0.189744	0	0	-0.150139	-0.00473136	-0.0508284	-0.0119676	-0.505931	-0.170692	1.73519	1.5708	0	0	-0.0174071	0.023533	0.276911	2.13171	0.861467	0	0
21.3	1.20388	1.36253	0.410977	0.820433	-0.678018	0.960375	0.297486	0.131253	-0.343782	0.369237	0.0586237	0	0	-0.100089	-0.150342	-0.401402	0.0586241	0.206505	0	0	-0.154471	-0.0059414	-0.0489668	-0.0102808	-0.505542	-0.174525	1.73707	1.5708	0	0	-0.0142472	0.0263871	0.277472	2.12632	0.870199	0	0
21.31	1.2045	1.36258	0.410904	0.820856	-0.677447	0.960233	0.295291	0.133562	-0.340406	0.365424	0.0585603	0	0	-0.0981826	-0.151655	-0.403153	0.0641772	0.211472	0	0	-0.15591	-0.00395733	-0.045452	-0.00917588	-0.505687	-0.178202	1.73975	1.5708	0	0	-0.011081	0.0293961	0.278182	2.12208	0.878025	0	0
21.32	1.20614	1.36256	0.409664	0.821345	-0.676829	0.96016	0.292957	0.136038	-0.337461	0.361829	0.0580589	0	0	-0.0973898	-0.152884	-0.403302	0.0677702	0.214275	0	0	-0.157506	-0.00177673	-0.041704	-0.00867479	-0.505703	-0.182332	1.74274	1.5708	0	0	-0.00774725	0.0320864	0.278864	2.1189	0.885004	0	0
21.33	1.20816	1.36196	0.408145	0.821898	-0.676136	0.96011	0.290722	0.138965	-0.335257	0.358255	0.0571817	0	0	-0.0964358	-0.154739	-0.402842	0.0712957	0.216595	0	0	-0.158431	0.000919761	-0.0377135	-0.0087512	-0.505694	-0.186266	1.7455	1.5708	0	0	-0.0045612	0.0345658	0.279821	2.11627	0.891364	0	0
21.34	1.20945	1.36104	0.407453	0.822484	-0.675405	0.960072	0.288872	0.141808	-0.333567	0.355061	0.0562491	0	0	-0.095252	-0.156905	-0.402097	0.0747457	0.218629	0	0	-0.158991	0.00389105	-0.0339366	-0.00875027	-0.50545	-0.189607	1.74815	1.5708	0	0	-0.00185452	0.0367914	0.280867	2.11336	0.897345	0	0
21.35	1.20938	1.36001	0.408431	0.823074	-0.674638	0.960047	0.287535	0.144052	-0.332814	0.352655	0.0557461	0	0	-0.0941538	-0.15901	-0.40158	0.0774	0.220295	0	0	-0.159181	0.00694214	-0.0309261	-0.00833551	-0.504928	-0.191522	1.75039	1.5708	0	0	0.000353224	0.0386444	0.281533	2.11015	0.904495	0	0
21.36	1.20779	1.35876	0.41128	0.823683	-0.673854	0.96002	0.287022	0.145615	-0.333014	0.351544	0.0558682	0	0	-0.0929869	-0.161003	-0.400621	0.0789651	0.221366	0	0	-0.158964	0.0100479	-0.0285855	-0.00808838	-0.504075	-0.192622	1.75262	1.5708	0	0	0.00282319	0.0408196	0.280783	2.10616	0.91105	0	0
21.37	1.20461	1.3572	0.416287	0.824307	-0.673038	0.959978	0.287429	0.146676	-0.334406	0.351657	0.0565369	0	0	-0.0914163	-0.163172	-0.399102	0.0800892	0.222264	0	0	-0.158239	0.0132668	-0.0270355	-0.00881927	-0.502507	-0.19529	1.75534	1.5708	0	0	0.00466569	0.0426326	0.279787	2.10312	0.920702	0	0
21.38	1.19951	1.3553	0.42357	0.824961	-0.672146	0.959885	0.288619	0.147512	-0.336505	0.352375	0.0578201	0	0	-0.0893269	-0.16558	-0.397408	0.0810255	0.223138	0	0	-0.156711	0.016626	-0.0263564	-0.00953775	-0.500292	-0.197791	1.75832	1.5708	0	0	0.0054388	0.0438682	0.278322	2.10101	0.929081	0	0
21.39	1.19515	1.35325	0.431027	0.825609	-0.671223	0.959784	0.289862	0.148186	-0.339833	0.353417	0.059435	0	0	-0.0869752	-0.168342	-0.394829	0.0822586	0.224233	0	0	-0.155118	0.0201856	-0.0266665	-0.0101185	-0.49765	-0.199841	1.76178	1.5708	0	0	0.00601917	0.0449456	0.276478	2.09897	0.93655	0	0
21.4	1.22657	1.3408	0.396306	0.827064	-0.66889	0.958975	0.283973	0.165874	-0.339053	0.34949	0.0607495	0	0	-0.0998199	-0.178734	-0.334553	0.0684349	0.217593	0	0	-0.153083	0.0373058	-0.0176521	-0.0143178	-0.50005	-0.202278	1.76985	1.5708	0	0	0.00318473	0.0491344	0.274814	2.09899	0.940005	0	0
21.41	1.20101	1.347	0.428416	0.827866	-0.667392	0.957936	0.279395	0.161676	-0.334477	0.333275	0.0623872	0	0	-0.0970315	-0.171386	-0.325938	0.0671568	0.218566	0	0	-0.147817	0.0296352	-0.0233271	-0.0165661	-0.493764	-0.204458	1.77509	1.5708	0	0	0.00230019	0.0472148	0.272086	2.10283	0.943233	0	0
21.42	1.2294	1.33759	0.404159	0.828191	-0.666848	0.958969	0.280599	0.167637	-0.348829	0.345827	0.0650378	0	0	-0.0982843	-0.1846	-0.323645	0.0684726	0.219356	0	0	-0.152423	0.0453171	-0.0228833	-0.0125664	-0.492064	-0.205896	1.77735	1.5708	0	0	0.00417545	0.051277	0.267615	2.09855	0.94648	0	0
21.43	1.22744	1.33559	0.411552	0.828842	-0.665813	0.958866	0.279466	0.168791	-0.35526	0.343511	0.0681357	0	0	-0.0961193	-0.187705	-0.317939	0.0692298	0.221749	0	0	-0.150784	0.049614	-0.0257837	-0.0115653	-0.487747	-0.207191	1.78106	1.5708	0	0	0.00410415	0.0526035	0.26255	2.09906	0.949505	0	0
21.44	1.22714	1.33335	0.4172	0.829559	-0.664771	0.958769	0.277053	0.171012	-0.360939	0.338902	0.0707376	0	0	-0.0939326	-0.191334	-0.311789	0.0707986	0.225333	0	0	-0.149356	0.0543329	-0.0279704	-0.011144	-0.483489	-0.208504	1.78514	1.5708	0	0	0.00435244	0.0538188	0.257614	2.09976	0.952115	0	0
21.45	1.22923	1.33118	0.42001	0.830326	-0.663676	0.958695	0.273456	0.174051	-0.365672	0.333008	0.0734	0	0	-0.0926187	-0.195093	-0.305745	0.0722199	0.228427	0	0	-0.148408	0.0592047	-0.0290928	-0.0110498	-0.479493	-0.209429	1.78914	1.5708	0	0	0.00532908	0.0553709	0.253053	2.09936	0.954659	0	0
21.46	1.23316	1.3291	0.420089	0.831188	-0.662501	0.958672	0.269221	0.177736	-0.369499	0.326886	0.0761977	0	0	-0.0921419	-0.198997	-0.301125	0.0735573	0.231388	0	0	-0.147802	0.0641758	-0.0290461	-0.0105801	-0.475688	-0.209761	1.79222	1.5708	0	0	0.00664965	0.0573755	0.248361	2.09843	0.957799	0	0
21.47	1.23851	1.3265	0.419735	0.832016	-0.661425	0.958638	0.265488	0.18151	-0.374089	0.321761	0.0797491	0	0	-0.090684	-0.203843	-0.295107	0.0763613	0.235401	0	0	-0.147518	0.0699959	-0.0295257	-0.010595	-0.472005	-0.211825	1.79559	1.5708	0	0	0.0085833	0.0593667	0.243548	2.09814	0.960158	0	0
21.48	1.24491	1.32362	0.418231	0.832811	-0.660306	0.95859	0.261822	0.18534	-0.378779	0.317286	0.0841073	0	0	-0.0890188	-0.209017	-0.288765	0.0798259	0.239948	0	0	-0.147304	0.0764712	-0.0297615	-0.0104048	-0.468983	-0.213281	1.79927	1.5708	0	0	0.0104831	0.0612911	0.238773	2.09832	0.962217	0	0
21.49	1.25241	1.32096	0.414934	0.833634	-0.659127	0.958571	0.258202	0.188955	-0.383261	0.314007	0.0888866	0	0	-0.0882107	-0.213963	-0.283144	0.0827735	0.244243	0	0	-0.147138	0.0830202	-0.0298142	-0.00878466	-0.466427	-0.212395	1.80236	1.5708	0	0	0.0121156	0.0626097	0.233782	2.09848	0.96412	0	0
21.5	1.25769	1.31848	0.412836	0.834548	-0.657908	0.958526	0.255761	0.191981	-0.386368	0.312678	0.0940149	0	0	-0.0874099	-0.218417	-0.278424	0.0855851	0.248557	0	0	-0.146333	0.0892587	-0.0294901	-0.00662153	-0.46392	-0.210297	1.80496	1.5708	0	0	0.0135216	0.0636112	0.228341	2.09862	0.965905	0	0
21.51	1.25676	1.31624	0.415447	0.835618	-0.656708	0.958387	0.256005	0.193888	-0.388095	0.314363	0.100035	0	0	-0.0854898	-0.221951	-0.275094	0.0886419	0.253289	0	0	-0.14388	0.0944623	-0.0280101	-0.00554034	-0.460862	-0.20979	1.80813	1.5708	0	0	0.0147457	0.0640031	0.223462	2.0986	0.967149	0	0
21.52	1.25701	1.31364	0.416875	0.836649	-0.65551	0.95827	0.257022	0.195651	-0.390514	0.318063	0.10611	0	0	-0.0836273	-0.225986	-0.272095	0.0919615	0.258007	0	0	-0.141303	0.100349	-0.026635	-0.00395776	-0.457759	-0.209185	1.81092	1.5708	0	0	0.0162076	0.0641741	0.219655	2.09754	0.967641	0	0
21.53	1.25716	1.31089	0.418281	0.83767	-0.654272	0.958145	0.258716	0.197167	-0.393057	0.323101	0.11226	0	0	-0.0817425	-0.230106	-0.269325	0.0952855	0.26271	0	0	-0.138326	0.106618	-0.0256801	-0.00160647	-0.454683	-0.207777	1.81307	1.5708	0	0	0.0172828	0.0637463	0.215053	2.09625	0.968087	0	0
21.54	1.25562	1.30825	0.420598	0.838735	-0.652925	0.957982	0.260995	0.198465	-0.394812	0.328791	0.118008	0	0	-0.0799452	-0.233785	-0.267728	0.0981729	0.26708	0	0	-0.134435	0.112576	-0.024348	-3.05476e-05	-0.45189	-0.206576	1.81457	1.5708	0	0	0.0180691	0.0629311	0.209946	2.09385	0.969011	0	0
21.55	1.25401	1.3055	0.4243	0.839692	-0.651628	0.957778	0.263435	0.199737	-0.397054	0.334005	0.123489	0	0	-0.0775705	-0.23781	-0.265318	0.101293	0.271405	0	0	-0.130226	0.118861	-0.0246561	0.00219616	-0.449003	-0.205492	1.81498	1.5708	0	0	0.0192963	0.0619235	0.205705	2.09045	0.97021	0	0
21.56	1.25377	1.30269	0.428451	0.840499	-0.650402	0.957571	0.265294	0.201164	-0.400165	0.337896	0.128885	0	0	-0.074817	-0.242269	-0.261157	0.104538	0.275535	0	0	-0.126194	0.125695	-0.0268197	0.00570714	-0.446154	-0.204402	1.81393	1.5708	0	0	0.0208587	0.0599031	0.202374	2.08793	0.970713	0	0
21.57	1.25521	1.30019	0.431359	0.841239	-0.649136	0.957421	0.266003	0.202722	-0.403073	0.340632	0.133212	0	0	-0.0727417	-0.24648	-0.256423	0.107279	0.279315	0	0	-0.122514	0.132605	-0.0293822	0.00967679	-0.443675	-0.203393	1.81234	1.5708	0	0	0.0228267	0.0575647	0.20028	2.08485	0.970276	0	0
21.58	1.28069	1.28214	0.403741	0.842284	-0.649032	0.958816	0.277834	0.209563	-0.45609	0.368362	0.132736	0	0	-0.0707277	-0.269327	-0.260029	0.11239	0.282201	0	0	-0.124083	0.159321	-0.0217361	0.0181804	-0.445973	-0.202464	1.80871	1.5708	0	0	0.0284465	0.0604558	0.198783	2.07331	0.969549	0	0
